<?xml version="1.0" encoding="UTF-8"?>
<svg xmlns="http://www.w3.org/2000/svg" xmlns:xlink="http://www.w3.org/1999/xlink" width="101pt" height="91pt" viewBox="0 0 101 91" version="1.1">
<g id="surface1">
<path style=" stroke:none;fill-rule:nonzero;fill:rgb(98.431373%,18.431373%,31.764706%);fill-opacity:1;" d="M 73.625 32.792969 L 66.847656 32.792969 C 65.847656 32.792969 64.453125 32.792969 63.160156 32.792969 L 63.058594 32.792969 L 62.957031 32.890625 C 62.160156 34.285156 61.363281 35.582031 60.667969 36.878906 L 50.800781 53.921875 L 49.902344 52.425781 C 48.507812 50.035156 46.511719 46.546875 44.519531 43.058594 C 42.328125 39.171875 39.933594 35.183594 38.640625 32.792969 C 38.441406 32.492188 38.339844 32.492188 37.242188 32.492188 C 36.945312 32.492188 36.644531 32.492188 36.246094 32.492188 L 35.75 32.492188 C 32.359375 32.492188 31.960938 32.59375 30.265625 32.59375 C 29.171875 32.59375 27.675781 32.691406 24.484375 32.792969 L 24.1875 32.792969 L 45.316406 69.273438 L 50 61.199219 C 51.398438 58.804688 52.691406 56.515625 54.089844 54.121094 L 56.878906 49.335938 C 59.371094 45.050781 61.863281 40.765625 64.355469 36.378906 C 64.652344 35.78125 65.449219 35.484375 65.949219 35.484375 C 66.347656 35.484375 66.847656 35.484375 67.445312 35.484375 C 67.742188 35.484375 68.042969 35.484375 68.339844 35.484375 L 72.925781 35.484375 L 61.164062 55.816406 L 52.59375 70.566406 L 55.882812 70.46875 L 55.980469 70.367188 C 56.679688 69.171875 57.378906 68.074219 57.875 67.078125 L 60.269531 62.792969 L 60.269531 62.992188 L 60.964844 61.695312 C 62.859375 58.507812 64.652344 55.316406 66.746094 51.828125 C 69.539062 47.042969 72.226562 42.359375 75.019531 37.574219 L 77.808594 32.792969 Z M 49.203125 56.8125 L 46.113281 62.09375 C 45.914062 62.394531 45.515625 62.59375 45.21875 62.59375 C 44.917969 62.59375 44.519531 62.394531 44.320312 62.09375 L 28.871094 35.582031 L 36.046875 35.582031 C 36.644531 35.582031 37.242188 36.179688 37.441406 36.679688 C 39.039062 39.371094 40.632812 42.160156 42.128906 44.753906 Z M 49.203125 56.8125 "/>
<path style=" stroke:none;fill-rule:nonzero;fill:rgb(98.431373%,18.431373%,31.764706%);fill-opacity:1;" d="M 89.371094 18.238281 C 85.882812 12.457031 80.898438 9.667969 74.917969 9.96875 C 70.933594 10.167969 66.945312 10.664062 63.058594 11.164062 L 62.859375 11.164062 C 61.265625 11.363281 59.769531 11.5625 58.175781 11.660156 C 55.085938 11.960938 52.09375 12.359375 49.003906 12.660156 L 47.511719 12.859375 C 40.53125 13.65625 33.257812 14.453125 26.082031 15.148438 C 21.394531 15.648438 17.011719 18.140625 13.921875 21.925781 C 10.929688 25.714844 9.632812 30.300781 10.234375 34.886719 C 10.929688 40.265625 11.726562 45.75 12.523438 51.03125 L 12.125 51.132812 L 11.925781 51.230469 L 11.925781 51.628906 L 12.523438 51.53125 C 13.125 55.617188 13.722656 59.804688 14.320312 63.988281 C 15.015625 68.972656 16.613281 73.058594 19.101562 76.546875 C 22.792969 81.429688 26.976562 83.824219 32.0625 83.625 C 32.660156 83.625 33.257812 83.625 33.953125 83.625 C 34.453125 83.625 34.851562 83.625 35.25 83.625 C 35.449219 83.625 35.75 83.625 35.949219 83.625 L 59.769531 83.625 C 63.558594 83.625 67.742188 83.625 72.226562 83.523438 C 73.523438 83.523438 74.71875 83.324219 75.71875 82.925781 C 82.394531 80.433594 86.679688 75.152344 88.074219 67.675781 C 88.773438 63.789062 89.074219 59.804688 89.371094 56.015625 L 89.371094 55.914062 C 89.472656 54.519531 89.570312 53.023438 89.769531 51.628906 C 89.96875 49.535156 90.167969 47.34375 90.269531 45.25 L 90.269531 45.050781 C 90.367188 43.855469 90.46875 42.558594 90.566406 41.363281 C 90.867188 38.074219 91.164062 34.785156 91.367188 31.496094 L 91.765625 27.109375 L 91.765625 27.011719 C 91.765625 23.722656 90.964844 20.832031 89.371094 18.238281 Z M 88.675781 26.710938 L 88.277344 31.097656 C 87.976562 34.386719 87.675781 37.675781 87.476562 40.867188 C 87.378906 42.160156 87.277344 43.457031 87.179688 44.652344 L 87.179688 44.953125 C 86.980469 46.945312 86.878906 49.039062 86.679688 51.03125 C 86.582031 52.527344 86.382812 54.023438 86.28125 55.515625 C 85.984375 59.304688 85.683594 63.191406 84.984375 66.878906 C 83.789062 73.257812 80.300781 77.644531 74.519531 79.835938 C 73.824219 80.136719 73.027344 80.234375 72.027344 80.234375 C 67.742188 80.335938 63.457031 80.335938 59.371094 80.335938 L 35.75 80.335938 C 35.25 80.335938 34.652344 80.335938 33.953125 80.335938 C 33.554688 80.335938 33.15625 80.335938 32.660156 80.335938 C 32.359375 80.335938 32.160156 80.335938 31.863281 80.335938 C 31.761719 80.335938 31.5625 80.335938 31.460938 80.335938 C 27.574219 80.335938 24.386719 78.441406 21.496094 74.554688 C 19.304688 71.5625 17.90625 67.976562 17.308594 63.390625 C 16.710938 59.105469 16.113281 54.820312 15.515625 50.632812 L 15.515625 50.535156 C 14.816406 45.550781 13.921875 39.769531 13.222656 34.386719 C 12.722656 30.699219 13.820312 26.910156 16.3125 23.722656 C 18.804688 20.53125 22.492188 18.4375 26.378906 18.039062 C 33.554688 17.34375 40.832031 16.546875 47.808594 15.75 L 48.605469 15.648438 C 51.894531 15.25 55.183594 14.949219 58.472656 14.550781 C 60.070312 14.351562 61.664062 14.152344 63.359375 13.953125 C 67.144531 13.457031 71.132812 13.058594 75.019531 12.757812 C 79.902344 12.457031 83.789062 14.75 86.78125 19.535156 C 88.074219 21.925781 88.773438 24.21875 88.675781 26.710938 L 88.875 26.613281 Z M 88.675781 26.710938 "/>
</g>
</svg>
