<?xml version="1.0" encoding="utf-8"?>
<!-- Generator: Adobe Illustrator 16.0.0, SVG Export Plug-In . SVG Version: 6.00 Build 0)  -->
<!DOCTYPE svg PUBLIC "-//W3C//DTD SVG 1.1//EN" "http://www.w3.org/Graphics/SVG/1.1/DTD/svg11.dtd">
<svg version="1.1" id="Layer_1" xmlns="http://www.w3.org/2000/svg" xmlns:xlink="http://www.w3.org/1999/xlink" x="0px" y="0px"
	 width="324px" height="60px" viewBox="0 0 324 60" enable-background="new 0 0 324 60" xml:space="preserve">
<g>
	<g>
		<path fill="#FFFFFF" d="M184.592,19.233c-1.002-0.995-2.158-1.493-3.469-1.493c-1.928,0-3.322,0.661-4.19,1.978
			c-0.866,1.317-1.299,2.988-1.299,5.012v14.038c0,0.571,0.036,1.098,0.114,1.574c0.074,0.479,0.248,0.945,0.517,1.403l-5.166,0.058
			c0.267-0.458,0.457-1.041,0.572-1.746c0.114-0.707,0.172-1.365,0.172-1.978V19.233c0-0.803-0.038-1.493-0.114-2.066
			c-0.077-0.573-0.269-1.187-0.575-1.838h4.48v5.627c1.21-1.567,2.497-2.851,3.865-3.847c1.598-1.148,3.297-1.819,5.093-2.01V19.233
			L184.592,19.233z"/>
		<path fill="#FFFFFF" d="M186.773,24.403c-0.151,1.262-0.239,2.143-0.259,2.641s-0.027,0.9-0.027,1.207
			c0,3.64,0.746,6.584,2.238,8.842c1.761,2.683,4.364,4.021,7.812,4.021c1.529,0,3.053-0.295,4.565-0.891
			c1.511-0.593,2.881-1.425,4.105-2.496l-0.348,1.436c-1.605,1.227-3.118,2.105-4.533,2.643c-1.418,0.535-3.065,0.803-4.938,0.803
			c-3.944,0-7.094-1.35-9.448-4.049c-2.354-2.697-3.53-6.058-3.53-10.078c0-3.943,1.234-7.208,3.703-9.791
			c2.471-2.584,5.638-3.877,9.505-3.877c2.907,0,5.416,0.883,7.521,2.641c2.104,1.762,3.292,4.08,3.562,6.951h-19.928V24.403z
			 M199.809,23.828c1.725,0,2.585-0.835,2.585-2.51c0-1.749-0.68-3.176-2.038-4.277c-1.359-1.103-2.938-1.655-4.737-1.655
			c-2.336,0-4.286,0.84-5.856,2.512c-1.417,1.52-2.375,3.498-2.871,5.931L199.809,23.828L199.809,23.828z"/>
		<path fill="#FFFFFF" d="M208.883,36.289V19.292c0-0.957-0.052-1.666-0.157-2.125c-0.104-0.459-0.298-0.918-0.59-1.378h4.996
			v22.396c0,0.957,0.028,1.666,0.086,2.125s0.259,0.957,0.604,1.492h-5.913c0.379-0.611,0.64-1.187,0.774-1.724
			c0.134-0.534,0.2-1.205,0.2-2.011C208.883,37.305,208.883,36.711,208.883,36.289z M211.095,3.614c0.796,0,1.507,0.229,2.133,0.688
			c0.625,0.46,0.938,1.092,0.938,1.896c0,0.768-0.313,1.369-0.938,1.809c-0.626,0.441-1.316,0.662-2.077,0.662
			c-0.759,0-1.448-0.23-2.074-0.691c-0.63-0.459-0.939-1.051-0.939-1.779c0-0.766,0.294-1.389,0.881-1.865
			C209.604,3.852,210.299,3.614,211.095,3.614z"/>
		<path fill="#FFFFFF" d="M216.692,36.46V19.004c0-1.072-0.034-1.81-0.104-2.211c-0.068-0.4-0.207-0.891-0.412-1.465h4.305v4.537
			c1.461-1.646,2.861-2.852,4.207-3.617c1.651-0.959,3.454-1.438,5.416-1.438h1.784c2.574,0.347,4.359,1.098,5.358,2.25
			c0.997,1.155,1.497,3.057,1.497,5.709v15.34c0,0.463,0.009,1.029,0.028,1.703c0.021,0.672,0.2,1.334,0.546,1.988h-4.65
			c0.19-2.144,0.287-4.285,0.287-6.431V24.288c0-2.334-0.421-4.173-1.261-5.514c-1.027-1.607-2.649-2.412-4.859-2.412
			c-0.727,0-1.526,0.097-2.403,0.289c-2.213,0.458-3.775,1.348-4.689,2.669c-0.915,1.321-1.372,3.169-1.372,5.541v13.726
			c0,0.574,0.032,1.129,0.103,1.664c0.07,0.539,0.228,1.056,0.471,1.552h-5.053c0.245-0.382,0.441-0.881,0.587-1.492
			c0.145-0.611,0.217-1.437,0.217-2.472C216.692,37.229,216.692,36.768,216.692,36.46z"/>
		<path fill="#FFFFFF" d="M244.772,15.329l-0.057,0.746c0,0.457,0.065,0.975,0.205,1.547c0.141,0.573,0.326,1.165,0.563,1.775
			l7.004,19.294l7-19.315c0.259-0.811,0.39-1.541,0.39-2.197c0-0.615-0.153-1.232-0.46-1.85h3.216
			c-0.881,0.996-1.569,2.201-2.068,3.617l-8.499,22.856h-2.468l-8.442-22.856c-0.269-0.727-0.546-1.377-0.832-1.951
			c-0.286-0.576-0.681-1.129-1.178-1.666H244.772z"/>
		<path fill="#FFFFFF" d="M265.733,24.403c-0.154,1.262-0.24,2.143-0.258,2.641c-0.021,0.498-0.03,0.9-0.03,1.207
			c0,3.64,0.746,6.584,2.24,8.842c1.76,2.683,4.363,4.021,7.811,4.021c1.529,0,3.053-0.295,4.565-0.891
			c1.511-0.593,2.878-1.425,4.104-2.496l-0.346,1.436c-1.605,1.227-3.119,2.105-4.536,2.643c-1.415,0.535-3.063,0.803-4.938,0.803
			c-3.944,0-7.094-1.35-9.447-4.049c-2.354-2.697-3.531-6.058-3.531-10.078c0-3.943,1.234-7.208,3.703-9.791
			c2.472-2.584,5.638-3.877,9.504-3.877c2.909,0,5.417,0.883,7.523,2.641c2.104,1.762,3.291,4.08,3.561,6.951h-19.926V24.403z
			 M278.769,23.828c1.723,0,2.584-0.835,2.584-2.51c0-1.749-0.681-3.176-2.038-4.277c-1.358-1.103-2.938-1.655-4.738-1.655
			c-2.336,0-4.288,0.84-5.856,2.512c-1.417,1.52-2.374,3.498-2.872,5.931L278.769,23.828L278.769,23.828z"/>
		<path fill="#FFFFFF" d="M287.613,36.46V19.004c0-1.072-0.035-1.81-0.104-2.211c-0.071-0.4-0.207-0.891-0.415-1.465h4.307v4.537
			c1.46-1.646,2.863-2.852,4.207-3.617c1.65-0.959,3.454-1.438,5.414-1.438h1.786c2.573,0.347,4.359,1.098,5.355,2.25
			c1,1.155,1.499,3.057,1.499,5.709v15.34c0,0.463,0.01,1.029,0.028,1.703c0.021,0.672,0.198,1.334,0.546,1.988h-4.652
			c0.191-2.144,0.288-4.285,0.288-6.431V24.288c0-2.334-0.423-4.173-1.258-5.514c-1.03-1.607-2.65-2.412-4.862-2.412
			c-0.727,0-1.523,0.097-2.402,0.289c-2.212,0.458-3.774,1.348-4.69,2.669c-0.915,1.321-1.372,3.169-1.372,5.541v13.726
			c0,0.574,0.034,1.129,0.104,1.664c0.071,0.539,0.229,1.056,0.471,1.552h-5.054c0.249-0.382,0.444-0.881,0.588-1.492
			c0.145-0.611,0.218-1.437,0.218-2.472C287.613,37.229,287.613,36.768,287.613,36.46z"/>
		<path fill="#FFFFFF" d="M311.323,15.618h2.187V9.747l3.964-1.094v6.965h5.512l-0.229,1.033h-5.283v19.123
			c0,1.455,0.19,2.564,0.573,3.328c0.535,1.072,1.454,1.609,2.76,1.609c0.954,0,1.815-0.268,2.581-0.805v1.033
			c-0.688,0.459-1.455,0.805-2.297,1.035c-0.842,0.229-1.703,0.344-2.584,0.344c-1.99,0-3.369-0.688-4.135-2.068
			c-0.573-1.033-0.862-2.641-0.862-4.823V16.651h-2.41L311.323,15.618z"/>
	</g>
</g>
<g>
	<g>
		<g>
			<path fill="#FFFFFF" d="M65.878,15.78h9.89l4.28,16.805l5.413-16.805h9.243l5.646,16.848l4.304-16.848h9.828l-9.831,26.69H95.55
				L90.145,26.41l-5.226,16.063h-9.144L65.878,15.78z"/>
		</g>
		<g>
			<path fill="#FFFFFF" d="M141.338,31.666h-20.506c0.184,1.643,0.629,2.861,1.331,3.667c0.989,1.156,2.278,1.735,3.871,1.735
				c1.006,0,1.961-0.252,2.864-0.756c0.554-0.317,1.146-0.879,1.784-1.684l10.077,0.93c-1.541,2.681-3.401,4.604-5.579,5.769
				c-2.178,1.165-5.303,1.748-9.374,1.748c-3.536,0-6.314-0.5-8.343-1.496s-3.708-2.58-5.04-4.75s-1.998-4.72-1.998-7.654
				c0-4.17,1.337-7.545,4.009-10.127c2.672-2.58,6.362-3.869,11.071-3.869c3.821,0,6.834,0.577,9.047,1.733
				c2.211,1.157,3.896,2.832,5.052,5.025c1.155,2.196,1.732,5.053,1.732,8.571L141.338,31.666L141.338,31.666z M130.935,26.763
				c-0.201-1.976-0.732-3.394-1.595-4.246c-0.864-0.856-2-1.282-3.407-1.282c-1.625,0-2.923,0.645-3.894,1.934
				c-0.621,0.806-1.016,2.004-1.183,3.595L130.935,26.763L130.935,26.763z"/>
		</g>
		<g>
			<path fill="#FFFFFF" d="M141.336,5.625h10.328v12.77c1.021-1.072,2.182-1.877,3.48-2.413c1.298-0.534,2.735-0.804,4.312-0.804
				c3.251,0,5.938,1.168,8.066,3.506c2.126,2.336,3.19,5.692,3.19,10.063c0,2.918-0.486,5.483-1.458,7.704s-2.316,3.878-4.032,4.976
				c-1.719,1.099-3.623,1.647-5.719,1.647c-1.791,0-3.435-0.387-4.925-1.158c-1.123-0.604-2.348-1.732-3.671-3.393v3.946h-9.573
				L141.336,5.625L141.336,5.625z M151.588,29.051c0,2.295,0.434,3.958,1.296,4.989c0.863,1.028,1.956,1.544,3.279,1.544
				c1.223,0,2.249-0.506,3.078-1.521c0.829-1.013,1.242-2.718,1.242-5.112c0-2.114-0.404-3.66-1.217-4.651
				c-0.813-0.987-1.798-1.481-2.955-1.481c-1.389,0-2.524,0.516-3.402,1.546C152.028,25.393,151.588,26.956,151.588,29.051z"/>
		</g>
	</g>
</g>
<g>
	<path fill="#FFFFFF" d="M79.519,56.945c-0.102,0.027-0.233,0.054-0.398,0.076c-0.166,0.021-0.346,0.045-0.538,0.068
		c-0.192,0.021-0.391,0.041-0.593,0.055c-0.201,0.015-0.386,0.021-0.552,0.021c-0.237,0-0.459-0.053-0.661-0.159
		c-0.201-0.104-0.381-0.245-0.537-0.42c-0.155-0.174-0.277-0.367-0.364-0.578c-0.088-0.211-0.131-0.428-0.131-0.647
		c0-0.44,0.101-0.801,0.303-1.081s0.476-0.498,0.82-0.654c0.344-0.155,0.743-0.259,1.197-0.31c0.455-0.051,0.939-0.072,1.454-0.063
		v-0.707c0-0.853-0.46-1.276-1.378-1.276c-0.294,0-0.605,0.039-0.937,0.116c-0.331,0.078-0.645,0.214-0.938,0.406l-0.262-0.522
		c0.386-0.232,0.771-0.381,1.157-0.443c0.386-0.063,0.749-0.094,1.089-0.094c0.191,0,0.4,0.022,0.627,0.067
		c0.225,0.048,0.434,0.13,0.627,0.248c0.191,0.12,0.354,0.285,0.481,0.496c0.128,0.212,0.192,0.479,0.192,0.799v4.837L79.519,56.945
		z M79.519,53.79c-0.408-0.019-0.8-0.009-1.175,0.026c-0.375,0.037-0.707,0.113-0.994,0.229s-0.517,0.278-0.688,0.489
		s-0.258,0.487-0.258,0.825c0,0.359,0.118,0.658,0.354,0.896s0.53,0.357,0.883,0.357c0.148,0,0.315-0.006,0.5-0.021
		c0.187-0.014,0.366-0.034,0.543-0.063c0.176-0.027,0.338-0.063,0.486-0.104c0.147-0.041,0.264-0.084,0.348-0.131V53.79
		L79.519,53.79z"/>
	<path fill="#FFFFFF" d="M93.104,57.208l-0.29-0.166l-1.873-4.822l-1.983,5.003l-0.289-0.152l-2.591-6.131l0.563-0.263l2.191,5.306
		l1.97-5.1l0.248-0.191l1.971,5.291l2.26-5.306l0.552,0.263L93.104,57.208z"/>
	<path fill="#FFFFFF" d="M100.896,50.911c0.325,0.119,0.62,0.301,0.882,0.543c0.263,0.244,0.474,0.555,0.635,0.931
		c0.159,0.377,0.24,0.822,0.24,1.338h-4.878c-0.046,0.395-0.01,0.764,0.11,1.108c0.119,0.344,0.294,0.644,0.523,0.896
		c0.229,0.254,0.505,0.453,0.826,0.6s0.656,0.221,1.007,0.221c0.356,0,0.692-0.057,1.005-0.172s0.635-0.292,0.965-0.531l0.331,0.496
		c-0.717,0.553-1.513,0.827-2.384,0.827c-0.45,0-0.863-0.083-1.24-0.248s-0.703-0.394-0.979-0.683
		c-0.274-0.289-0.488-0.635-0.641-1.039s-0.229-0.846-0.229-1.323c0-0.45,0.071-0.868,0.215-1.254
		c0.143-0.386,0.34-0.72,0.593-0.999c0.252-0.28,0.551-0.498,0.896-0.654c0.346-0.156,0.725-0.234,1.138-0.234
		C100.241,50.73,100.569,50.791,100.896,50.911z M99.91,51.352c-0.516,0-0.956,0.162-1.323,0.488s-0.61,0.773-0.729,1.344h4.01
		C101.628,51.961,100.976,51.352,99.91,51.352z"/>
	<path fill="#FFFFFF" d="M110.065,55.161c-0.166,0.418-0.396,0.776-0.695,1.073c-0.3,0.3-0.661,0.529-1.09,0.689
		c-0.427,0.16-0.901,0.241-1.426,0.241c-0.377,0-0.729-0.036-1.061-0.11c-0.331-0.072-0.708-0.193-1.13-0.356v-9.054l0.661-0.207
		v3.982c0.32-0.238,0.646-0.414,0.972-0.523c0.325-0.11,0.737-0.166,1.232-0.166c0.403,0,0.775,0.074,1.115,0.222
		s0.634,0.354,0.882,0.618c0.248,0.269,0.441,0.587,0.579,0.959c0.139,0.371,0.207,0.777,0.207,1.22
		C110.313,54.271,110.23,54.743,110.065,55.161z M109.445,52.784c-0.109-0.304-0.262-0.563-0.454-0.778
		c-0.192-0.216-0.421-0.384-0.683-0.503s-0.549-0.18-0.861-0.18c-0.386,0-0.738,0.061-1.062,0.18
		c-0.321,0.119-0.675,0.34-1.061,0.662v4.051c0.274,0.101,0.536,0.183,0.784,0.24c0.248,0.062,0.491,0.09,0.73,0.09
		c0.404,0,0.776-0.067,1.116-0.207c0.34-0.137,0.631-0.33,0.875-0.578c0.243-0.247,0.434-0.538,0.57-0.875
		c0.138-0.336,0.207-0.7,0.207-1.096C109.61,53.422,109.556,53.086,109.445,52.784z"/>
	<path fill="#FFFFFF" d="M118.318,48.1l-0.923,0.922l-0.924-0.922l0.924-0.924L118.318,48.1z M117.01,57.042v-6.104l0.661-0.274
		v6.379H117.01z"/>
	<path fill="#FFFFFF" d="M124.685,57.042v-3.526c0-0.697-0.166-1.233-0.496-1.605c-0.331-0.371-0.771-0.559-1.322-0.559
		c-0.45,0-0.842,0.045-1.172,0.131c-0.331,0.088-0.614,0.209-0.854,0.365v5.194h-0.661v-6.187l0.661,0.345v-0.027
		c0.284-0.139,0.613-0.243,0.985-0.317c0.371-0.072,0.751-0.109,1.137-0.109c0.717,0,1.293,0.211,1.729,0.634
		c0.437,0.423,0.654,1.052,0.654,1.888v3.775L124.685,57.042L124.685,57.042z"/>
	<path fill="#FFFFFF" d="M132.222,57.042v-3.526c0-0.697-0.166-1.233-0.496-1.605c-0.331-0.371-0.771-0.559-1.323-0.559
		c-0.449,0-0.841,0.045-1.171,0.131c-0.331,0.088-0.614,0.209-0.854,0.365v5.194h-0.661v-6.187l0.661,0.345v-0.027
		c0.284-0.139,0.613-0.243,0.984-0.317c0.372-0.072,0.751-0.109,1.138-0.109c0.717,0,1.293,0.211,1.729,0.634
		c0.437,0.423,0.654,1.052,0.654,1.888v3.775L132.222,57.042L132.222,57.042z"/>
	<path fill="#FFFFFF" d="M140.977,55.229c-0.161,0.392-0.384,0.73-0.668,1.021c-0.285,0.29-0.622,0.517-1.013,0.676
		c-0.392,0.16-0.812,0.241-1.261,0.241c-0.45,0-0.87-0.081-1.262-0.241c-0.391-0.159-0.729-0.386-1.013-0.676
		c-0.285-0.289-0.51-0.629-0.676-1.021c-0.165-0.39-0.248-0.813-0.248-1.272s0.083-0.888,0.248-1.281
		c0.166-0.396,0.391-0.737,0.676-1.026c0.284-0.289,0.622-0.515,1.013-0.676c0.392-0.16,0.812-0.24,1.262-0.24
		c0.449,0,0.869,0.08,1.261,0.24c0.391,0.161,0.728,0.387,1.013,0.676c0.284,0.289,0.507,0.632,0.668,1.026
		c0.161,0.396,0.241,0.822,0.241,1.281S141.138,54.839,140.977,55.229z M140.309,52.928c-0.129-0.316-0.304-0.592-0.522-0.826
		c-0.222-0.233-0.48-0.418-0.778-0.551c-0.299-0.134-0.623-0.199-0.972-0.199c-0.351,0-0.677,0.065-0.979,0.199
		c-0.303,0.133-0.563,0.314-0.785,0.544c-0.221,0.23-0.396,0.505-0.522,0.827c-0.129,0.32-0.193,0.666-0.193,1.033
		s0.064,0.709,0.193,1.025c0.128,0.316,0.303,0.59,0.522,0.819c0.222,0.23,0.482,0.411,0.785,0.545s0.629,0.199,0.979,0.199
		c0.349,0,0.673-0.065,0.972-0.199c0.298-0.134,0.558-0.313,0.778-0.545c0.22-0.229,0.395-0.503,0.522-0.819
		s0.192-0.658,0.192-1.025S140.437,53.246,140.309,52.928z"/>
	<path fill="#FFFFFF" d="M145.462,57.357l-0.345-0.191l-2.771-6.27l0.606-0.233l2.396,5.44l2.273-5.44l0.605,0.233L145.462,57.357z"
		/>
	<path fill="#FFFFFF" d="M153.191,56.945c-0.102,0.027-0.233,0.054-0.398,0.076c-0.166,0.021-0.346,0.045-0.538,0.068
		c-0.192,0.021-0.391,0.041-0.592,0.055c-0.202,0.015-0.387,0.021-0.553,0.021c-0.237,0-0.459-0.053-0.66-0.159
		c-0.202-0.104-0.382-0.245-0.537-0.42c-0.156-0.174-0.278-0.367-0.365-0.578c-0.088-0.211-0.131-0.428-0.131-0.647
		c0-0.44,0.101-0.801,0.303-1.081s0.476-0.498,0.82-0.654c0.344-0.155,0.744-0.259,1.197-0.31c0.455-0.051,0.939-0.072,1.454-0.063
		v-0.707c0-0.853-0.46-1.276-1.378-1.276c-0.294,0-0.605,0.039-0.937,0.116c-0.331,0.078-0.645,0.214-0.938,0.406l-0.262-0.522
		c0.386-0.232,0.771-0.381,1.157-0.443c0.386-0.063,0.749-0.094,1.089-0.094c0.191,0,0.4,0.022,0.627,0.067
		c0.225,0.048,0.434,0.13,0.627,0.248c0.192,0.12,0.354,0.285,0.482,0.496c0.128,0.212,0.191,0.479,0.191,0.799v4.837
		L153.191,56.945z M153.191,53.79c-0.407-0.019-0.8-0.009-1.175,0.026c-0.375,0.037-0.707,0.113-0.994,0.229
		s-0.517,0.278-0.688,0.489s-0.257,0.487-0.257,0.825c0,0.359,0.117,0.658,0.354,0.896s0.53,0.357,0.883,0.357
		c0.148,0,0.315-0.006,0.5-0.021c0.187-0.014,0.366-0.034,0.543-0.063c0.177-0.027,0.338-0.063,0.486-0.104
		c0.147-0.041,0.264-0.084,0.348-0.131V53.79L153.191,53.79z"/>
	<path fill="#FFFFFF" d="M158.593,57.068c-0.258,0.064-0.479,0.098-0.662,0.098c-0.174,0-0.347-0.025-0.517-0.075
		c-0.17-0.051-0.323-0.129-0.461-0.233c-0.139-0.105-0.248-0.242-0.331-0.406c-0.083-0.166-0.124-0.368-0.124-0.607v-4.449h-1.171
		v-0.537h1.171v-1.694l0.661-0.358v2.053h1.735v0.537h-1.735v3.68c0,0.268,0.005,0.494,0.014,0.683
		c0.01,0.188,0.044,0.341,0.104,0.454c0.061,0.115,0.151,0.2,0.275,0.256c0.124,0.055,0.301,0.082,0.531,0.082
		c0.154,0,0.294-0.016,0.413-0.049c0.119-0.031,0.271-0.089,0.455-0.172l0.262,0.523C159.057,56.932,158.85,57.004,158.593,57.068z"
		/>
	<path fill="#FFFFFF" d="M162.216,48.1l-0.923,0.922l-0.924-0.922l0.924-0.924L162.216,48.1z M160.907,57.042v-6.104l0.66-0.274
		v6.379H160.907z"/>
	<path fill="#FFFFFF" d="M169.801,55.229c-0.161,0.392-0.384,0.73-0.668,1.021c-0.285,0.29-0.622,0.517-1.013,0.676
		c-0.392,0.16-0.812,0.241-1.262,0.241c-0.449,0-0.87-0.081-1.261-0.241c-0.391-0.159-0.729-0.386-1.013-0.676
		c-0.285-0.289-0.51-0.629-0.676-1.021c-0.165-0.39-0.248-0.813-0.248-1.272s0.083-0.888,0.248-1.281
		c0.166-0.396,0.391-0.737,0.676-1.026c0.284-0.289,0.622-0.515,1.013-0.676c0.391-0.16,0.812-0.24,1.261-0.24
		c0.45,0,0.87,0.08,1.262,0.24c0.391,0.161,0.728,0.387,1.013,0.676c0.284,0.289,0.507,0.632,0.668,1.026
		c0.161,0.396,0.241,0.822,0.241,1.281S169.962,54.839,169.801,55.229z M169.133,52.928c-0.129-0.316-0.304-0.592-0.523-0.826
		c-0.221-0.233-0.479-0.418-0.777-0.551c-0.299-0.134-0.623-0.199-0.973-0.199s-0.676,0.065-0.979,0.199
		c-0.303,0.133-0.564,0.314-0.785,0.544c-0.221,0.23-0.396,0.505-0.523,0.827c-0.129,0.32-0.192,0.666-0.192,1.033
		s0.063,0.709,0.192,1.025s0.304,0.59,0.523,0.819c0.221,0.23,0.482,0.411,0.785,0.545s0.629,0.199,0.979,0.199
		s0.674-0.065,0.973-0.199c0.298-0.134,0.558-0.313,0.777-0.545c0.221-0.229,0.396-0.503,0.523-0.819s0.192-0.658,0.192-1.025
		S169.261,53.246,169.133,52.928z"/>
	<path fill="#FFFFFF" d="M176.532,57.042v-3.526c0-0.697-0.166-1.233-0.496-1.605c-0.331-0.371-0.772-0.559-1.323-0.559
		c-0.45,0-0.841,0.045-1.171,0.131c-0.331,0.088-0.615,0.209-0.854,0.365v5.194h-0.661v-6.187l0.661,0.345v-0.027
		c0.284-0.139,0.613-0.243,0.985-0.317c0.372-0.072,0.751-0.109,1.137-0.109c0.717,0,1.293,0.211,1.729,0.634
		c0.436,0.423,0.653,1.052,0.653,1.888v3.775L176.532,57.042L176.532,57.042z"/>
	<path fill="#FFFFFF" d="M188.126,57.055c-0.399,0.074-0.756,0.11-1.068,0.11c-0.486,0-0.93-0.075-1.329-0.228
		c-0.398-0.151-0.742-0.365-1.025-0.642c-0.285-0.274-0.509-0.604-0.669-0.991s-0.241-0.813-0.241-1.281
		c0-0.486,0.081-0.933,0.241-1.336c0.16-0.404,0.386-0.752,0.676-1.041c0.289-0.289,0.629-0.515,1.02-0.676
		c0.392-0.16,0.819-0.24,1.288-0.24c0.294,0,0.625,0.041,0.992,0.123c0.367,0.084,0.712,0.198,1.033,0.346l-0.275,0.564
		c-0.192-0.074-0.365-0.136-0.517-0.187c-0.152-0.052-0.294-0.091-0.428-0.117s-0.265-0.049-0.394-0.063
		c-0.129-0.014-0.262-0.021-0.398-0.021c-0.378,0-0.72,0.063-1.026,0.192c-0.309,0.129-0.572,0.309-0.792,0.537
		c-0.221,0.229-0.392,0.506-0.51,0.828c-0.12,0.32-0.181,0.674-0.181,1.061c0,0.781,0.229,1.398,0.689,1.854
		c0.459,0.454,1.088,0.683,1.888,0.683c0.146,0,0.289-0.007,0.427-0.021c0.139-0.015,0.275-0.034,0.413-0.062
		c0.139-0.028,0.285-0.064,0.441-0.111c0.156-0.045,0.326-0.105,0.51-0.179l0.289,0.579
		C188.877,56.875,188.525,56.982,188.126,57.055z"/>
	<path fill="#FFFFFF" d="M196.572,55.229c-0.16,0.392-0.384,0.73-0.668,1.021s-0.621,0.517-1.013,0.676
		c-0.391,0.16-0.811,0.241-1.261,0.241s-0.87-0.081-1.261-0.241c-0.392-0.159-0.729-0.386-1.014-0.676
		c-0.285-0.289-0.51-0.629-0.676-1.021c-0.165-0.39-0.248-0.813-0.248-1.272s0.083-0.888,0.248-1.281
		c0.166-0.396,0.391-0.737,0.676-1.026c0.284-0.289,0.622-0.515,1.014-0.676c0.391-0.16,0.811-0.24,1.261-0.24s0.87,0.08,1.261,0.24
		c0.392,0.161,0.729,0.387,1.013,0.676s0.508,0.632,0.668,1.026c0.161,0.396,0.241,0.822,0.241,1.281S196.733,54.839,196.572,55.229
		z M195.904,52.928c-0.129-0.316-0.304-0.592-0.522-0.826c-0.221-0.233-0.48-0.418-0.778-0.551
		c-0.299-0.134-0.623-0.199-0.972-0.199c-0.351,0-0.676,0.065-0.979,0.199c-0.303,0.133-0.563,0.314-0.784,0.544
		c-0.222,0.23-0.396,0.505-0.523,0.827c-0.129,0.32-0.193,0.666-0.193,1.033s0.064,0.709,0.193,1.025
		c0.128,0.316,0.303,0.59,0.523,0.819c0.221,0.23,0.481,0.411,0.784,0.545c0.304,0.134,0.629,0.199,0.979,0.199
		c0.349,0,0.673-0.065,0.972-0.199c0.298-0.134,0.559-0.313,0.778-0.545c0.22-0.229,0.395-0.503,0.522-0.819
		c0.129-0.316,0.192-0.658,0.192-1.025S196.032,53.246,195.904,52.928z"/>
	<path fill="#FFFFFF" d="M207.051,57.042v-3.515c0-0.313-0.025-0.6-0.075-0.86c-0.051-0.262-0.138-0.487-0.262-0.683
		c-0.124-0.193-0.29-0.342-0.496-0.446c-0.207-0.104-0.467-0.159-0.779-0.159c-0.432,0-0.806,0.071-1.122,0.214
		c-0.316,0.144-0.612,0.343-0.89,0.601c0.019,0.045,0.046,0.168,0.083,0.365c0.037,0.196,0.056,0.393,0.056,0.584v3.899h-0.662
		v-3.526c0-0.771-0.133-1.324-0.398-1.66c-0.267-0.336-0.675-0.504-1.228-0.504c-0.449,0-0.811,0.059-1.081,0.172
		c-0.271,0.115-0.529,0.252-0.777,0.408v5.11h-0.662v-6.187l0.662,0.371c0.238-0.129,0.507-0.24,0.806-0.338
		c0.299-0.096,0.649-0.145,1.054-0.145c0.524,0,0.929,0.085,1.214,0.255c0.284,0.17,0.505,0.37,0.66,0.601
		c0.351-0.248,0.705-0.451,1.068-0.606c0.362-0.156,0.811-0.234,1.343-0.234c0.744,0,1.289,0.224,1.633,0.668
		c0.346,0.446,0.518,1.05,0.518,1.813v3.803L207.051,57.042L207.051,57.042z"/>
	<path fill="#FFFFFF" d="M215.463,55.202c-0.16,0.391-0.379,0.731-0.654,1.026c-0.274,0.293-0.602,0.523-0.979,0.688
		s-0.78,0.248-1.212,0.248c-0.313,0-0.62-0.03-0.925-0.089c-0.303-0.061-0.604-0.146-0.908-0.256v3.375h-0.661V50.73l0.661,0.33
		c0.267-0.102,0.563-0.182,0.889-0.24c0.326-0.062,0.65-0.09,0.972-0.09c0.44,0,0.849,0.08,1.221,0.24
		c0.37,0.161,0.694,0.385,0.971,0.668c0.274,0.285,0.489,0.622,0.641,1.014c0.152,0.391,0.229,0.814,0.229,1.274
		C215.704,54.387,215.624,54.811,215.463,55.202z M214.781,52.936c-0.129-0.321-0.306-0.598-0.529-0.826
		c-0.227-0.229-0.496-0.409-0.813-0.539c-0.315-0.127-0.659-0.191-1.025-0.191c-0.275,0-0.528,0.021-0.759,0.063
		c-0.229,0.041-0.52,0.141-0.867,0.297v4.326c0.32,0.175,0.607,0.295,0.86,0.357c0.253,0.064,0.535,0.098,0.849,0.098
		c0.366,0,0.704-0.063,1.013-0.187c0.308-0.125,0.569-0.297,0.785-0.519c0.216-0.221,0.384-0.485,0.503-0.799
		c0.119-0.313,0.179-0.656,0.179-1.033S214.909,53.257,214.781,52.936z"/>
	<path fill="#FFFFFF" d="M221.243,56.945c-0.103,0.027-0.234,0.054-0.399,0.076c-0.166,0.021-0.345,0.045-0.538,0.068
		c-0.192,0.021-0.39,0.041-0.592,0.055c-0.202,0.015-0.386,0.021-0.552,0.021c-0.238,0-0.459-0.053-0.661-0.159
		c-0.202-0.104-0.381-0.245-0.537-0.42c-0.156-0.174-0.278-0.367-0.365-0.578c-0.088-0.211-0.131-0.428-0.131-0.647
		c0-0.44,0.101-0.801,0.303-1.081s0.477-0.498,0.82-0.654c0.344-0.155,0.744-0.259,1.198-0.31c0.455-0.051,0.938-0.072,1.454-0.063
		v-0.707c0-0.853-0.46-1.276-1.379-1.276c-0.294,0-0.605,0.039-0.937,0.116c-0.331,0.078-0.644,0.214-0.938,0.406l-0.262-0.522
		c0.386-0.232,0.771-0.381,1.157-0.443s0.749-0.094,1.089-0.094c0.192,0,0.401,0.022,0.627,0.067
		c0.226,0.048,0.435,0.13,0.627,0.248c0.192,0.12,0.354,0.285,0.482,0.496c0.128,0.212,0.191,0.479,0.191,0.799v4.837
		L221.243,56.945z M221.243,53.79c-0.408-0.019-0.801-0.009-1.176,0.026c-0.375,0.037-0.707,0.113-0.993,0.229
		c-0.287,0.115-0.518,0.278-0.688,0.489s-0.257,0.487-0.257,0.825c0,0.359,0.118,0.658,0.354,0.896
		c0.236,0.238,0.53,0.357,0.884,0.357c0.147,0,0.314-0.006,0.5-0.021c0.186-0.014,0.365-0.034,0.543-0.063
		c0.176-0.027,0.338-0.063,0.485-0.104c0.148-0.041,0.265-0.084,0.349-0.131V53.79L221.243,53.79z"/>
	<path fill="#FFFFFF" d="M228.643,57.042v-3.526c0-0.697-0.166-1.233-0.496-1.605c-0.331-0.371-0.771-0.559-1.322-0.559
		c-0.45,0-0.842,0.045-1.172,0.131c-0.331,0.088-0.614,0.209-0.854,0.365v5.194h-0.661v-6.187l0.661,0.345v-0.027
		c0.284-0.139,0.613-0.243,0.985-0.317c0.371-0.072,0.751-0.109,1.137-0.109c0.717,0,1.293,0.211,1.729,0.634
		c0.437,0.423,0.654,1.052,0.654,1.888v3.775L228.643,57.042L228.643,57.042z"/>
	<path fill="#FFFFFF" d="M233.629,57.042c-0.275,0.551-0.559,0.99-0.847,1.315c-0.29,0.326-0.565,0.578-0.827,0.759
		c-0.263,0.179-0.501,0.298-0.718,0.356c-0.216,0.062-0.388,0.101-0.517,0.117l-0.248-0.523c0.212-0.036,0.421-0.092,0.627-0.164
		c0.207-0.073,0.411-0.186,0.613-0.332c0.202-0.146,0.406-0.342,0.613-0.586c0.207-0.242,0.415-0.558,0.627-0.942
		c0.063-0.119,0.131-0.246,0.199-0.379s0.132-0.255,0.187-0.365s0.099-0.207,0.131-0.289c0.032-0.083,0.048-0.133,0.048-0.151
		l-2.617-4.918l0.552-0.317l2.396,4.575l2.246-4.575l0.551,0.317L233.629,57.042z"/>
</g>
<g>
	<path fill="#FFFFFF" d="M28.713,42.887c6.409,6.424,13.512-0.82,13.512-0.82c7.562-7.293,0.825-13.649,0.825-13.649l-4.464-4.434
		c-0.75-0.748-1.958-0.744-2.707,0.004l-0.619,0.625c-0.747,0.75-0.743,1.955,0.01,2.703l4.402,4.387c0,0,3.963,3.511-0.068,7.462
		c0,0-3.896,4.396-7.61,0.347l-4.461-4.42c-0.749-0.747-1.958-0.745-2.705,0.009l-0.619,0.616c-0.746,0.752-0.746,1.961,0.007,2.707
		L28.713,42.887z"/>
	<path fill="#FFFFFF" d="M29.811,33.12c-0.837-0.834-0.913-2.111-0.167-2.862l0.62-0.624c0.748-0.751,2.027-0.682,2.864,0.151
		l4.928,4.904c0.836,0.836,0.914,2.115,0.168,2.865L37.6,38.18c-0.745,0.738-2.025,0.68-2.861-0.154L29.811,33.12z"/>
</g>
<path fill="#FFFFFF" d="M59.708,56.693c-1.583-7.764-1.15-14.93-0.733-21.858c0.646-10.74,1.257-20.883-6.914-29.053
	C44.93-1.351,33.323-1.353,26.191,5.78c-3.981,3.982-5.848,9.584-5.21,15.068c-5.485-0.635-11.086,1.229-15.066,5.211
	c-7.135,7.13-7.134,18.738,0,25.871c8.544,8.543,18.703,7.873,29.458,7.162c0.683-0.043,1.37-0.089,2.059-0.132l2.51-0.166
	l-9.189-4.329l-3.143,0.125c-7.057,0.117-13.007-0.885-18.237-6.117c-5.228-5.227-5.228-13.729,0-18.958
	c3.648-3.649,9.159-4.869,14.043-3.106l4.896,1.768l-1.768-4.896c-1.764-4.881-0.543-10.393,3.105-14.043
	c5.228-5.227,13.731-5.227,18.958,0c6.616,6.616,6.12,14.863,5.491,25.305c-0.221,3.661-0.454,7.583-0.371,11.709l6.368,13.145
	L59.708,56.693z"/>
</svg>
