<?xml version="1.0" encoding="utf-8"?>
<!-- Generator: Adobe Illustrator 16.0.0, SVG Export Plug-In . SVG Version: 6.00 Build 0)  -->
<!DOCTYPE svg PUBLIC "-//W3C//DTD SVG 1.1//EN" "http://www.w3.org/Graphics/SVG/1.1/DTD/svg11.dtd">
<svg version="1.1" id="Layer_1" xmlns="http://www.w3.org/2000/svg" xmlns:xlink="http://www.w3.org/1999/xlink" x="0px" y="0px"
	 width="324px" height="60px" viewBox="0 0 324 60" enable-background="new 0 0 324 60" xml:space="preserve">
<g>
	<g>
		<path fill="#2D3F50" d="M184.592,19.233c-1.002-0.995-2.158-1.493-3.469-1.493c-1.927,0-3.322,0.661-4.19,1.978
			c-0.866,1.317-1.299,2.988-1.299,5.012v14.037c0,0.572,0.036,1.098,0.114,1.575c0.075,0.478,0.248,0.945,0.517,1.403l-5.166,0.058
			c0.266-0.458,0.457-1.041,0.572-1.746c0.114-0.708,0.172-1.365,0.172-1.978V19.233c0-0.803-0.038-1.493-0.114-2.066
			c-0.077-0.573-0.269-1.187-0.575-1.838h4.48v5.627c1.21-1.567,2.497-2.851,3.865-3.847c1.598-1.148,3.297-1.819,5.093-2.01V19.233
			z"/>
		<path fill="#2D3F50" d="M186.773,24.403c-0.152,1.262-0.24,2.143-0.259,2.641c-0.02,0.498-0.027,0.9-0.027,1.207
			c0,3.639,0.746,6.584,2.238,8.842c1.761,2.682,4.364,4.02,7.811,4.02c1.53,0,3.053-0.295,4.566-0.89
			c1.511-0.593,2.881-1.425,4.105-2.497l-0.347,1.436c-1.606,1.227-3.119,2.105-4.534,2.642c-1.418,0.536-3.065,0.804-4.938,0.804
			c-3.944,0-7.094-1.35-9.448-4.049c-2.354-2.698-3.531-6.058-3.531-10.078c0-3.943,1.235-7.208,3.704-9.791
			c2.47-2.584,5.637-3.877,9.504-3.877c2.908,0,5.416,0.883,7.522,2.641c2.104,1.762,3.292,4.08,3.561,6.951H186.773z
			 M199.809,23.828c1.724,0,2.585-0.835,2.585-2.51c0-1.749-0.68-3.176-2.038-4.277c-1.36-1.103-2.938-1.655-4.738-1.655
			c-2.336,0-4.286,0.84-5.856,2.512c-1.417,1.52-2.375,3.498-2.871,5.931H199.809z"/>
		<path fill="#2D3F50" d="M208.883,36.289V19.292c0-0.957-0.052-1.666-0.157-2.125c-0.104-0.459-0.298-0.918-0.59-1.378h4.996
			v22.396c0,0.957,0.028,1.666,0.086,2.125s0.259,0.957,0.604,1.493h-5.914c0.379-0.612,0.64-1.187,0.775-1.724
			c0.134-0.534,0.2-1.205,0.2-2.01C208.883,37.304,208.883,36.711,208.883,36.289z M211.095,3.614c0.796,0,1.507,0.23,2.133,0.689
			c0.625,0.46,0.938,1.092,0.938,1.895c0,0.768-0.313,1.369-0.938,1.809c-0.626,0.441-1.317,0.662-2.077,0.662
			c-0.759,0-1.449-0.23-2.075-0.691c-0.629-0.459-0.939-1.051-0.939-1.779c0-0.766,0.294-1.389,0.881-1.865
			C209.604,3.852,210.299,3.614,211.095,3.614z"/>
		<path fill="#2D3F50" d="M216.692,36.46V19.004c0-1.072-0.035-1.81-0.104-2.211c-0.068-0.4-0.207-0.891-0.412-1.465h4.305v4.537
			c1.461-1.646,2.861-2.852,4.207-3.617c1.651-0.959,3.454-1.438,5.416-1.438h1.784c2.574,0.347,4.359,1.098,5.358,2.25
			c0.997,1.155,1.497,3.057,1.497,5.709v15.341c0,0.462,0.009,1.028,0.029,1.703c0.02,0.671,0.2,1.334,0.546,1.988h-4.651
			c0.191-2.144,0.287-4.286,0.287-6.431V24.288c0-2.334-0.421-4.173-1.26-5.514c-1.028-1.607-2.65-2.412-4.86-2.412
			c-0.726,0-1.526,0.097-2.403,0.289c-2.213,0.458-3.775,1.348-4.69,2.669s-1.372,3.169-1.372,5.541v13.726
			c0,0.574,0.033,1.129,0.103,1.664c0.07,0.539,0.227,1.055,0.471,1.552h-5.053c0.245-0.382,0.441-0.881,0.587-1.493
			c0.144-0.611,0.217-1.436,0.217-2.471C216.692,37.228,216.692,36.768,216.692,36.46z"/>
		<path fill="#2D3F50" d="M244.772,15.329l-0.057,0.746c0,0.457,0.066,0.975,0.205,1.547c0.141,0.573,0.326,1.165,0.563,1.775
			l7.004,19.295l7-19.316c0.258-0.811,0.389-1.541,0.389-2.197c0-0.615-0.153-1.232-0.46-1.85h3.216
			c-0.881,0.996-1.569,2.201-2.068,3.617l-8.499,22.856h-2.468l-8.442-22.856c-0.269-0.727-0.546-1.377-0.833-1.951
			c-0.286-0.576-0.68-1.129-1.177-1.666H244.772z"/>
		<path fill="#2D3F50" d="M265.733,24.403c-0.155,1.262-0.241,2.143-0.258,2.641c-0.021,0.498-0.03,0.9-0.03,1.207
			c0,3.639,0.746,6.584,2.24,8.842c1.76,2.682,4.363,4.02,7.81,4.02c1.53,0,3.053-0.295,4.566-0.89
			c1.511-0.593,2.878-1.425,4.104-2.497l-0.345,1.436c-1.606,1.227-3.12,2.105-4.537,2.642c-1.415,0.536-3.063,0.804-4.937,0.804
			c-3.944,0-7.094-1.35-9.447-4.049c-2.354-2.698-3.532-6.058-3.532-10.078c0-3.943,1.235-7.208,3.704-9.791
			c2.471-2.584,5.637-3.877,9.503-3.877c2.91,0,5.417,0.883,7.524,2.641c2.104,1.762,3.291,4.08,3.56,6.951H265.733z
			 M278.769,23.828c1.722,0,2.584-0.835,2.584-2.51c0-1.749-0.681-3.176-2.038-4.277c-1.359-1.103-2.938-1.655-4.739-1.655
			c-2.336,0-4.288,0.84-5.856,2.512c-1.417,1.52-2.374,3.498-2.872,5.931H278.769z"/>
		<path fill="#2D3F50" d="M287.613,36.46V19.004c0-1.072-0.036-1.81-0.104-2.211c-0.071-0.4-0.207-0.891-0.415-1.465h4.307v4.537
			c1.46-1.646,2.863-2.852,4.207-3.617c1.65-0.959,3.454-1.438,5.414-1.438h1.786c2.573,0.347,4.359,1.098,5.356,2.25
			c1,1.155,1.499,3.057,1.499,5.709v15.341c0,0.462,0.009,1.028,0.028,1.703c0.02,0.671,0.198,1.334,0.546,1.988h-4.653
			c0.192-2.144,0.289-4.286,0.289-6.431V24.288c0-2.334-0.423-4.173-1.258-5.514c-1.031-1.607-2.651-2.412-4.863-2.412
			c-0.726,0-1.523,0.097-2.402,0.289c-2.212,0.458-3.775,1.348-4.691,2.669c-0.915,1.321-1.372,3.169-1.372,5.541v13.726
			c0,0.574,0.035,1.129,0.104,1.664c0.071,0.539,0.228,1.055,0.471,1.552h-5.054c0.249-0.382,0.444-0.881,0.588-1.493
			c0.144-0.611,0.218-1.436,0.218-2.471C287.613,37.228,287.613,36.768,287.613,36.46z"/>
		<path fill="#2D3F50" d="M311.323,15.618h2.186V9.747l3.964-1.094v6.965h5.512l-0.229,1.033h-5.283v19.122
			c0,1.455,0.191,2.565,0.573,3.329c0.536,1.072,1.454,1.609,2.76,1.609c0.954,0,1.816-0.268,2.581-0.805v1.033
			c-0.688,0.459-1.455,0.805-2.297,1.035c-0.841,0.229-1.703,0.345-2.584,0.345c-1.99,0-3.369-0.689-4.134-2.069
			c-0.574-1.033-0.863-2.64-0.863-4.823V16.651h-2.41L311.323,15.618z"/>
	</g>
</g>
<g>
	<g>
		<g>
			<path fill="#2D3F50" d="M65.878,15.78h9.89l4.28,16.805l5.413-16.805h9.243l5.646,16.848l4.304-16.848h9.828l-9.831,26.691
				h-9.101L90.145,26.41l-5.226,16.062h-9.143L65.878,15.78z"/>
		</g>
		<g>
			<path fill="#2D3F50" d="M141.338,31.666h-20.506c0.184,1.642,0.629,2.862,1.331,3.667c0.99,1.156,2.279,1.735,3.871,1.735
				c1.006,0,1.961-0.252,2.865-0.755c0.553-0.318,1.146-0.879,1.784-1.684l10.077,0.93c-1.541,2.68-3.401,4.604-5.579,5.768
				c-2.178,1.165-5.303,1.748-9.374,1.748c-3.536,0-6.315-0.5-8.343-1.496c-2.028-0.996-3.708-2.58-5.04-4.75
				s-1.998-4.719-1.998-7.654c0-4.17,1.337-7.545,4.009-10.127c2.672-2.58,6.362-3.869,11.071-3.869
				c3.821,0,6.834,0.577,9.047,1.733c2.211,1.157,3.896,2.832,5.052,5.025c1.155,2.196,1.732,5.053,1.732,8.571V31.666z
				 M130.935,26.763c-0.201-1.976-0.733-3.394-1.595-4.246c-0.864-0.856-2-1.282-3.407-1.282c-1.625,0-2.923,0.645-3.894,1.934
				c-0.621,0.806-1.015,2.004-1.182,3.595H130.935z"/>
		</g>
		<g>
			<path fill="#2D3F50" d="M141.336,5.625h10.328v12.77c1.021-1.072,2.182-1.877,3.481-2.413c1.298-0.534,2.735-0.804,4.311-0.804
				c3.251,0,5.938,1.168,8.067,3.506c2.126,2.336,3.19,5.692,3.19,10.063c0,2.918-0.486,5.483-1.458,7.704s-2.316,3.878-4.032,4.976
				c-1.719,1.099-3.623,1.647-5.719,1.647c-1.791,0-3.434-0.386-4.925-1.158c-1.123-0.603-2.347-1.732-3.671-3.393v3.947h-9.573
				V5.625z M151.588,29.051c0,2.295,0.434,3.958,1.296,4.989c0.863,1.028,1.956,1.544,3.279,1.544c1.223,0,2.249-0.506,3.078-1.521
				c0.83-1.013,1.243-2.718,1.243-5.113c0-2.114-0.405-3.66-1.217-4.651c-0.814-0.987-1.798-1.481-2.955-1.481
				c-1.389,0-2.525,0.516-3.403,1.546C152.028,25.393,151.588,26.956,151.588,29.051z"/>
		</g>
	</g>
</g>
<g>
	<path fill="#2D3F50" d="M79.519,56.945c-0.102,0.028-0.234,0.054-0.399,0.076c-0.166,0.022-0.345,0.046-0.538,0.069
		c-0.192,0.022-0.39,0.041-0.592,0.055s-0.386,0.021-0.552,0.021c-0.238,0-0.459-0.053-0.661-0.159
		c-0.202-0.105-0.381-0.245-0.537-0.42c-0.156-0.174-0.278-0.367-0.365-0.578c-0.088-0.211-0.131-0.428-0.131-0.648
		c0-0.44,0.101-0.801,0.303-1.081s0.476-0.498,0.82-0.654s0.744-0.259,1.198-0.31c0.455-0.051,0.939-0.072,1.454-0.063v-0.707
		c0-0.852-0.46-1.277-1.378-1.277c-0.294,0-0.606,0.039-0.937,0.117c-0.331,0.078-0.644,0.214-0.938,0.406l-0.262-0.523
		c0.386-0.232,0.771-0.381,1.157-0.443s0.749-0.094,1.089-0.094c0.192,0,0.401,0.023,0.627,0.068
		c0.225,0.047,0.434,0.129,0.627,0.248c0.192,0.12,0.354,0.285,0.482,0.496c0.128,0.212,0.192,0.479,0.192,0.799v4.837
		L79.519,56.945z M79.519,53.79c-0.408-0.018-0.8-0.009-1.175,0.027c-0.375,0.037-0.707,0.113-0.994,0.228
		c-0.287,0.115-0.517,0.278-0.688,0.489c-0.171,0.211-0.257,0.487-0.257,0.826c0,0.359,0.118,0.658,0.354,0.896
		s0.53,0.357,0.883,0.357c0.148,0,0.315-0.006,0.5-0.02c0.186-0.014,0.366-0.035,0.543-0.063c0.176-0.027,0.338-0.063,0.486-0.104
		s0.264-0.084,0.348-0.131V53.79z"/>
	<path fill="#2D3F50" d="M93.104,57.208l-0.29-0.166l-1.873-4.822l-1.984,5.002l-0.289-0.152l-2.591-6.131l0.564-0.262l2.191,5.305
		l1.97-5.099l0.248-0.192l1.971,5.291l2.26-5.305l0.551,0.262L93.104,57.208z"/>
	<path fill="#2D3F50" d="M100.896,50.911c0.325,0.119,0.62,0.301,0.882,0.543c0.262,0.244,0.473,0.555,0.634,0.931
		c0.16,0.377,0.241,0.822,0.241,1.337h-4.878c-0.046,0.395-0.01,0.764,0.11,1.109c0.119,0.344,0.294,0.643,0.523,0.895
		c0.229,0.254,0.505,0.453,0.827,0.6c0.321,0.147,0.656,0.221,1.006,0.221c0.357,0,0.693-0.057,1.005-0.172
		c0.313-0.115,0.635-0.292,0.965-0.531l0.331,0.496c-0.717,0.552-1.512,0.827-2.384,0.827c-0.45,0-0.863-0.083-1.24-0.248
		s-0.703-0.393-0.979-0.683c-0.275-0.289-0.489-0.635-0.641-1.039s-0.228-0.846-0.228-1.323c0-0.45,0.071-0.868,0.214-1.254
		s0.34-0.719,0.593-0.999c0.252-0.28,0.551-0.498,0.896-0.654s0.724-0.234,1.137-0.234
		C100.241,50.731,100.569,50.791,100.896,50.911z M99.91,51.351c-0.515,0-0.956,0.163-1.323,0.489s-0.61,0.773-0.729,1.344h4.009
		C101.628,51.961,100.976,51.351,99.91,51.351z"/>
	<path fill="#2D3F50" d="M110.065,55.161c-0.166,0.418-0.397,0.776-0.696,1.074c-0.299,0.299-0.661,0.529-1.089,0.689
		c-0.427,0.16-0.902,0.241-1.426,0.241c-0.377,0-0.73-0.036-1.061-0.11c-0.331-0.073-0.708-0.193-1.13-0.357v-9.053l0.661-0.207
		v3.982c0.321-0.239,0.646-0.414,0.972-0.523c0.325-0.111,0.737-0.166,1.233-0.166c0.403,0,0.775,0.074,1.115,0.221
		s0.634,0.354,0.882,0.619c0.248,0.268,0.441,0.586,0.579,0.958s0.207,0.778,0.207,1.22
		C110.313,54.272,110.23,54.743,110.065,55.161z M109.445,52.784c-0.11-0.303-0.262-0.563-0.455-0.778
		c-0.192-0.216-0.42-0.384-0.682-0.503s-0.549-0.18-0.861-0.18c-0.386,0-0.739,0.061-1.062,0.18
		c-0.321,0.119-0.675,0.34-1.061,0.662v4.051c0.275,0.101,0.537,0.182,0.785,0.24c0.248,0.061,0.491,0.09,0.73,0.09
		c0.404,0,0.776-0.068,1.116-0.207c0.34-0.137,0.631-0.33,0.875-0.578c0.243-0.248,0.434-0.539,0.571-0.875s0.207-0.7,0.207-1.096
		C109.61,53.422,109.556,53.086,109.445,52.784z"/>
	<path fill="#2D3F50" d="M118.318,48.099l-0.923,0.923l-0.924-0.923l0.924-0.923L118.318,48.099z M117.01,57.042v-6.104l0.661-0.275
		v6.379H117.01z"/>
	<path fill="#2D3F50" d="M124.685,57.042v-3.527c0-0.697-0.166-1.233-0.496-1.605c-0.331-0.371-0.772-0.558-1.323-0.558
		c-0.45,0-0.841,0.044-1.171,0.131c-0.331,0.087-0.615,0.209-0.854,0.365v5.194h-0.661v-6.187l0.661,0.345v-0.027
		c0.284-0.139,0.613-0.244,0.985-0.317s0.751-0.11,1.137-0.11c0.717,0,1.293,0.211,1.729,0.634c0.436,0.423,0.654,1.052,0.654,1.888
		v3.775H124.685z"/>
	<path fill="#2D3F50" d="M132.222,57.042v-3.527c0-0.697-0.166-1.233-0.496-1.605c-0.331-0.371-0.772-0.558-1.323-0.558
		c-0.45,0-0.841,0.044-1.171,0.131c-0.331,0.087-0.615,0.209-0.854,0.365v5.194h-0.661v-6.187l0.661,0.345v-0.027
		c0.284-0.139,0.613-0.244,0.985-0.317s0.751-0.11,1.137-0.11c0.717,0,1.293,0.211,1.729,0.634c0.436,0.423,0.654,1.052,0.654,1.888
		v3.775H132.222z"/>
	<path fill="#2D3F50" d="M140.977,55.229c-0.161,0.391-0.384,0.73-0.668,1.02c-0.285,0.29-0.622,0.516-1.013,0.676
		s-0.811,0.241-1.261,0.241s-0.87-0.081-1.261-0.241s-0.729-0.386-1.013-0.676c-0.285-0.289-0.51-0.629-0.676-1.02
		c-0.165-0.39-0.248-0.814-0.248-1.273s0.083-0.887,0.248-1.281c0.166-0.396,0.391-0.738,0.676-1.027
		c0.284-0.289,0.622-0.514,1.013-0.675s0.811-0.241,1.261-0.241s0.87,0.08,1.261,0.241s0.728,0.386,1.013,0.675
		c0.284,0.289,0.507,0.632,0.668,1.027c0.161,0.395,0.241,0.822,0.241,1.281S141.138,54.839,140.977,55.229z M140.309,52.928
		c-0.129-0.316-0.304-0.592-0.523-0.826c-0.221-0.234-0.48-0.418-0.778-0.551c-0.299-0.134-0.623-0.2-0.972-0.2
		c-0.35,0-0.676,0.066-0.979,0.2c-0.303,0.133-0.564,0.314-0.785,0.544s-0.396,0.505-0.523,0.827
		c-0.129,0.32-0.193,0.666-0.193,1.033s0.064,0.709,0.193,1.025c0.128,0.317,0.303,0.591,0.523,0.82
		c0.221,0.23,0.482,0.411,0.785,0.545c0.303,0.133,0.629,0.199,0.979,0.199c0.349,0,0.673-0.066,0.972-0.199
		c0.298-0.134,0.558-0.314,0.778-0.545c0.22-0.229,0.395-0.503,0.523-0.82c0.128-0.316,0.192-0.658,0.192-1.025
		S140.437,53.246,140.309,52.928z"/>
	<path fill="#2D3F50" d="M145.462,57.358l-0.345-0.192l-2.77-6.269l0.606-0.234l2.397,5.441l2.273-5.441l0.606,0.234L145.462,57.358
		z"/>
	<path fill="#2D3F50" d="M153.191,56.945c-0.102,0.028-0.234,0.054-0.399,0.076c-0.166,0.022-0.345,0.046-0.538,0.069
		c-0.192,0.022-0.39,0.041-0.592,0.055s-0.386,0.021-0.552,0.021c-0.238,0-0.459-0.053-0.661-0.159
		c-0.202-0.105-0.381-0.245-0.537-0.42c-0.156-0.174-0.278-0.367-0.365-0.578c-0.088-0.211-0.131-0.428-0.131-0.648
		c0-0.44,0.101-0.801,0.303-1.081s0.476-0.498,0.82-0.654s0.744-0.259,1.198-0.31c0.455-0.051,0.939-0.072,1.454-0.063v-0.707
		c0-0.852-0.46-1.277-1.378-1.277c-0.294,0-0.606,0.039-0.937,0.117c-0.331,0.078-0.644,0.214-0.938,0.406l-0.262-0.523
		c0.386-0.232,0.771-0.381,1.157-0.443s0.749-0.094,1.089-0.094c0.192,0,0.401,0.023,0.627,0.068
		c0.225,0.047,0.434,0.129,0.627,0.248c0.192,0.12,0.354,0.285,0.482,0.496c0.128,0.212,0.192,0.479,0.192,0.799v4.837
		L153.191,56.945z M153.191,53.79c-0.408-0.018-0.8-0.009-1.175,0.027c-0.375,0.037-0.707,0.113-0.994,0.228
		c-0.287,0.115-0.517,0.278-0.688,0.489c-0.171,0.211-0.257,0.487-0.257,0.826c0,0.359,0.118,0.658,0.354,0.896
		s0.53,0.357,0.883,0.357c0.148,0,0.315-0.006,0.5-0.02c0.186-0.014,0.366-0.035,0.543-0.063c0.176-0.027,0.338-0.063,0.486-0.104
		s0.264-0.084,0.348-0.131V53.79z"/>
	<path fill="#2D3F50" d="M158.593,57.069c-0.258,0.064-0.479,0.097-0.662,0.097c-0.174,0-0.347-0.025-0.517-0.075
		c-0.17-0.051-0.323-0.129-0.461-0.234s-0.248-0.242-0.331-0.406c-0.083-0.166-0.124-0.368-0.124-0.607v-4.45h-1.171v-0.537h1.171
		v-1.694l0.661-0.359v2.054h1.736v0.537h-1.736v3.679c0,0.268,0.005,0.494,0.014,0.683c0.01,0.188,0.044,0.34,0.104,0.454
		c0.06,0.115,0.151,0.2,0.275,0.256c0.124,0.055,0.301,0.082,0.531,0.082c0.155,0,0.294-0.016,0.413-0.049
		c0.119-0.031,0.271-0.089,0.455-0.172l0.262,0.523C159.057,56.931,158.85,57.004,158.593,57.069z"/>
	<path fill="#2D3F50" d="M162.216,48.099l-0.923,0.923l-0.924-0.923l0.924-0.923L162.216,48.099z M160.907,57.042v-6.104
		l0.661-0.275v6.379H160.907z"/>
	<path fill="#2D3F50" d="M169.801,55.229c-0.161,0.391-0.384,0.73-0.668,1.02c-0.285,0.29-0.622,0.516-1.013,0.676
		s-0.811,0.241-1.261,0.241s-0.87-0.081-1.261-0.241s-0.729-0.386-1.013-0.676c-0.285-0.289-0.51-0.629-0.676-1.02
		c-0.165-0.39-0.248-0.814-0.248-1.273s0.083-0.887,0.248-1.281c0.166-0.396,0.391-0.738,0.676-1.027
		c0.284-0.289,0.622-0.514,1.013-0.675s0.811-0.241,1.261-0.241s0.87,0.08,1.261,0.241s0.728,0.386,1.013,0.675
		c0.284,0.289,0.507,0.632,0.668,1.027c0.161,0.395,0.241,0.822,0.241,1.281S169.962,54.839,169.801,55.229z M169.133,52.928
		c-0.129-0.316-0.304-0.592-0.523-0.826c-0.221-0.234-0.48-0.418-0.778-0.551c-0.299-0.134-0.623-0.2-0.972-0.2
		c-0.35,0-0.676,0.066-0.979,0.2c-0.303,0.133-0.564,0.314-0.785,0.544s-0.396,0.505-0.523,0.827
		c-0.129,0.32-0.193,0.666-0.193,1.033s0.064,0.709,0.193,1.025c0.128,0.317,0.303,0.591,0.523,0.82
		c0.221,0.23,0.482,0.411,0.785,0.545c0.303,0.133,0.629,0.199,0.979,0.199c0.349,0,0.673-0.066,0.972-0.199
		c0.298-0.134,0.558-0.314,0.778-0.545c0.22-0.229,0.395-0.503,0.523-0.82c0.128-0.316,0.192-0.658,0.192-1.025
		S169.261,53.246,169.133,52.928z"/>
	<path fill="#2D3F50" d="M176.532,57.042v-3.527c0-0.697-0.166-1.233-0.496-1.605c-0.331-0.371-0.772-0.558-1.323-0.558
		c-0.45,0-0.841,0.044-1.171,0.131c-0.331,0.087-0.615,0.209-0.854,0.365v5.194h-0.661v-6.187l0.661,0.345v-0.027
		c0.284-0.139,0.613-0.244,0.985-0.317s0.751-0.11,1.137-0.11c0.717,0,1.293,0.211,1.729,0.634c0.436,0.423,0.654,1.052,0.654,1.888
		v3.775H176.532z"/>
	<path fill="#2D3F50" d="M188.126,57.055c-0.399,0.074-0.756,0.11-1.068,0.11c-0.486,0-0.93-0.075-1.329-0.228
		c-0.399-0.151-0.742-0.365-1.026-0.641c-0.285-0.275-0.508-0.605-0.669-0.992c-0.16-0.386-0.241-0.813-0.241-1.281
		c0-0.486,0.081-0.932,0.241-1.336c0.161-0.404,0.386-0.752,0.676-1.041c0.289-0.289,0.629-0.514,1.02-0.675
		s0.819-0.241,1.288-0.241c0.294,0,0.625,0.041,0.992,0.124s0.712,0.198,1.033,0.345l-0.275,0.564
		c-0.193-0.073-0.365-0.135-0.517-0.186s-0.294-0.09-0.428-0.117c-0.133-0.027-0.264-0.049-0.393-0.063s-0.262-0.021-0.399-0.021
		c-0.377,0-0.719,0.064-1.026,0.192c-0.308,0.129-0.572,0.309-0.792,0.538c-0.221,0.229-0.391,0.505-0.51,0.827
		c-0.12,0.321-0.18,0.675-0.18,1.061c0,0.781,0.229,1.398,0.689,1.854c0.459,0.454,1.088,0.682,1.888,0.682
		c0.146,0,0.289-0.007,0.427-0.021c0.138-0.015,0.275-0.034,0.413-0.062c0.138-0.028,0.285-0.064,0.441-0.111
		c0.156-0.045,0.326-0.105,0.51-0.179l0.289,0.579C188.877,56.875,188.525,56.982,188.126,57.055z"/>
	<path fill="#2D3F50" d="M196.572,55.229c-0.161,0.391-0.384,0.73-0.668,1.02c-0.285,0.29-0.622,0.516-1.013,0.676
		s-0.811,0.241-1.261,0.241s-0.87-0.081-1.261-0.241s-0.729-0.386-1.013-0.676c-0.285-0.289-0.51-0.629-0.676-1.02
		c-0.165-0.39-0.248-0.814-0.248-1.273s0.083-0.887,0.248-1.281c0.166-0.396,0.391-0.738,0.676-1.027
		c0.284-0.289,0.622-0.514,1.013-0.675s0.811-0.241,1.261-0.241s0.87,0.08,1.261,0.241s0.728,0.386,1.013,0.675
		c0.284,0.289,0.507,0.632,0.668,1.027c0.161,0.395,0.241,0.822,0.241,1.281S196.733,54.839,196.572,55.229z M195.904,52.928
		c-0.129-0.316-0.304-0.592-0.523-0.826c-0.221-0.234-0.48-0.418-0.778-0.551c-0.299-0.134-0.623-0.2-0.972-0.2
		c-0.35,0-0.676,0.066-0.979,0.2c-0.303,0.133-0.564,0.314-0.785,0.544s-0.396,0.505-0.523,0.827
		c-0.129,0.32-0.193,0.666-0.193,1.033s0.064,0.709,0.193,1.025c0.128,0.317,0.303,0.591,0.523,0.82
		c0.221,0.23,0.482,0.411,0.785,0.545c0.303,0.133,0.629,0.199,0.979,0.199c0.349,0,0.673-0.066,0.972-0.199
		c0.298-0.134,0.558-0.314,0.778-0.545c0.22-0.229,0.395-0.503,0.523-0.82c0.128-0.316,0.192-0.658,0.192-1.025
		S196.032,53.246,195.904,52.928z"/>
	<path fill="#2D3F50" d="M207.051,57.042v-3.514c0-0.313-0.025-0.6-0.075-0.861c-0.051-0.262-0.138-0.488-0.262-0.682
		s-0.29-0.342-0.496-0.447c-0.207-0.105-0.467-0.159-0.779-0.159c-0.432,0-0.806,0.071-1.122,0.214
		c-0.317,0.143-0.613,0.342-0.89,0.6c0.019,0.045,0.046,0.168,0.083,0.365s0.056,0.393,0.056,0.585v3.899h-0.662v-3.527
		c0-0.771-0.133-1.324-0.399-1.66s-0.675-0.503-1.227-0.503c-0.45,0-0.811,0.058-1.081,0.172c-0.271,0.115-0.53,0.251-0.778,0.407
		v5.111h-0.662v-6.187l0.662,0.372c0.238-0.129,0.507-0.241,0.806-0.338c0.299-0.096,0.649-0.145,1.054-0.145
		c0.524,0,0.928,0.085,1.213,0.255s0.505,0.37,0.661,0.6c0.35-0.248,0.705-0.45,1.068-0.606c0.362-0.156,0.811-0.234,1.343-0.234
		c0.744,0,1.289,0.223,1.633,0.668c0.345,0.446,0.517,1.05,0.517,1.813v3.803H207.051z"/>
	<path fill="#2D3F50" d="M215.463,55.202c-0.16,0.391-0.379,0.732-0.654,1.027c-0.275,0.293-0.602,0.523-0.979,0.688
		s-0.78,0.248-1.212,0.248c-0.313,0-0.62-0.03-0.924-0.089c-0.303-0.061-0.605-0.146-0.909-0.256v3.376h-0.661v-9.466l0.661,0.33
		c0.267-0.101,0.563-0.181,0.889-0.24c0.326-0.061,0.65-0.09,0.972-0.09c0.44,0,0.848,0.08,1.22,0.241
		c0.371,0.161,0.695,0.384,0.971,0.668c0.275,0.285,0.489,0.622,0.641,1.013c0.152,0.391,0.228,0.815,0.228,1.275
		C215.704,54.387,215.624,54.811,215.463,55.202z M214.781,52.936c-0.129-0.322-0.306-0.598-0.53-0.827
		c-0.226-0.229-0.496-0.409-0.813-0.538c-0.316-0.128-0.659-0.192-1.026-0.192c-0.275,0-0.528,0.021-0.758,0.062
		c-0.229,0.042-0.52,0.141-0.868,0.297v4.326c0.321,0.175,0.608,0.295,0.861,0.358c0.253,0.064,0.535,0.097,0.848,0.097
		c0.367,0,0.704-0.063,1.013-0.186c0.308-0.125,0.569-0.297,0.785-0.518s0.384-0.486,0.503-0.799s0.179-0.656,0.179-1.033
		S214.909,53.257,214.781,52.936z"/>
	<path fill="#2D3F50" d="M221.243,56.945c-0.102,0.028-0.234,0.054-0.399,0.076c-0.166,0.022-0.345,0.046-0.538,0.069
		c-0.192,0.022-0.39,0.041-0.592,0.055s-0.386,0.021-0.552,0.021c-0.238,0-0.459-0.053-0.661-0.159
		c-0.202-0.105-0.381-0.245-0.537-0.42c-0.156-0.174-0.278-0.367-0.365-0.578c-0.088-0.211-0.131-0.428-0.131-0.648
		c0-0.44,0.101-0.801,0.303-1.081s0.476-0.498,0.82-0.654s0.744-0.259,1.198-0.31c0.455-0.051,0.939-0.072,1.454-0.063v-0.707
		c0-0.852-0.46-1.277-1.378-1.277c-0.294,0-0.606,0.039-0.937,0.117c-0.331,0.078-0.644,0.214-0.938,0.406l-0.262-0.523
		c0.386-0.232,0.771-0.381,1.157-0.443s0.749-0.094,1.089-0.094c0.192,0,0.401,0.023,0.627,0.068
		c0.225,0.047,0.434,0.129,0.627,0.248c0.192,0.12,0.354,0.285,0.482,0.496c0.128,0.212,0.192,0.479,0.192,0.799v4.837
		L221.243,56.945z M221.243,53.79c-0.408-0.018-0.8-0.009-1.175,0.027c-0.375,0.037-0.707,0.113-0.994,0.228
		c-0.287,0.115-0.517,0.278-0.688,0.489c-0.171,0.211-0.257,0.487-0.257,0.826c0,0.359,0.118,0.658,0.354,0.896
		s0.53,0.357,0.883,0.357c0.148,0,0.315-0.006,0.5-0.02c0.186-0.014,0.366-0.035,0.543-0.063c0.176-0.027,0.338-0.063,0.486-0.104
		s0.264-0.084,0.348-0.131V53.79z"/>
	<path fill="#2D3F50" d="M228.643,57.042v-3.527c0-0.697-0.166-1.233-0.496-1.605c-0.331-0.371-0.772-0.558-1.323-0.558
		c-0.45,0-0.841,0.044-1.171,0.131c-0.331,0.087-0.615,0.209-0.854,0.365v5.194h-0.661v-6.187l0.661,0.345v-0.027
		c0.284-0.139,0.613-0.244,0.985-0.317s0.751-0.11,1.137-0.11c0.717,0,1.293,0.211,1.729,0.634c0.436,0.423,0.654,1.052,0.654,1.888
		v3.775H228.643z"/>
	<path fill="#2D3F50" d="M233.629,57.042c-0.275,0.551-0.558,0.99-0.847,1.316c-0.29,0.325-0.565,0.578-0.827,0.758
		c-0.262,0.179-0.501,0.298-0.717,0.357c-0.216,0.061-0.388,0.1-0.517,0.117l-0.248-0.523c0.212-0.037,0.421-0.092,0.627-0.165
		c0.207-0.073,0.411-0.185,0.613-0.331s0.406-0.342,0.613-0.586c0.207-0.243,0.415-0.558,0.627-0.943
		c0.064-0.119,0.131-0.246,0.2-0.379c0.068-0.133,0.131-0.255,0.186-0.365s0.099-0.207,0.131-0.289
		c0.032-0.083,0.048-0.133,0.048-0.152l-2.617-4.918l0.551-0.317l2.397,4.575l2.246-4.575l0.551,0.317L233.629,57.042z"/>
</g>
<g>
	<path fill="#2D3F50" d="M28.713,42.887c6.409,6.424,13.512-0.82,13.512-0.82c7.561-7.294,0.825-13.65,0.825-13.65l-4.464-4.434
		c-0.75-0.748-1.958-0.744-2.707,0.004l-0.619,0.625c-0.747,0.75-0.743,1.955,0.01,2.703l4.402,4.387c0,0,3.963,3.511-0.068,7.462
		c0,0-3.896,4.397-7.611,0.347l-4.461-4.42c-0.749-0.747-1.958-0.746-2.705,0.008l-0.619,0.617
		c-0.746,0.752-0.746,1.961,0.007,2.707L28.713,42.887z"/>
	<path fill="#2D3F50" d="M29.811,33.12c-0.837-0.834-0.913-2.111-0.167-2.862l0.62-0.624c0.748-0.751,2.027-0.682,2.864,0.151
		l4.928,4.905c0.836,0.835,0.914,2.114,0.168,2.865L37.6,38.179c-0.745,0.739-2.026,0.681-2.861-0.154L29.811,33.12z"/>
</g>
<path fill="#2D3F50" d="M59.708,56.694c-1.583-7.764-1.15-14.93-0.733-21.859c0.646-10.74,1.257-20.883-6.914-29.053
	C44.93-1.351,33.323-1.353,26.191,5.78c-3.982,3.982-5.848,9.584-5.21,15.068c-5.486-0.635-11.086,1.229-15.067,5.211
	c-7.134,7.131-7.133,18.738,0,25.87c8.544,8.544,18.703,7.874,29.458,7.163c0.683-0.043,1.37-0.089,2.059-0.132l2.51-0.166
	l-9.19-4.329l-3.142,0.125c-7.057,0.117-13.007-0.885-18.238-6.117c-5.227-5.227-5.227-13.73,0-18.958
	c3.649-3.649,9.16-4.869,14.043-3.106l4.896,1.768l-1.768-4.896c-1.763-4.881-0.543-10.393,3.106-14.043
	c5.227-5.227,13.731-5.227,18.958,0c6.616,6.616,6.12,14.863,5.491,25.305c-0.221,3.661-0.454,7.583-0.371,11.709l6.368,13.145
	L59.708,56.694z"/>
</svg>
